# xmcd
#
# Track frame offsets: 
#        150
#        18750
#        35651
#        54256
#        72589
#        93867
#        116348
#        133275
#        153254
#        167335
#        187180
#
# Disc length: 2666 seconds
#
# Revision: 0
# Processed by: cddbd v1.5.2PL0 Copyright (c) Steve Scherf et al.
# Submitted via: ExactAudioCopy v0.99pb5
#
DISCID=8b0a680b
DTITLE=Chris Smither - Time Stands Still
DYEAR=2009
DGENRE=Blues
TTITLE0=Don't Call Me Stranger
TTITLE1=Time Stands Still
TTITLE2=Surprise, Surprise
TTITLE3=I Don't Know
TTITLE4=Call Yourself
TTITLE5=Old Man Down
TTITLE6=I Told You So
TTITLE7=It Takes a Lot to Laugh, It Takes a Train to Cry
TTITLE8=Miner's Blues
TTITLE9=Someone Like Me
TTITLE10=Madame Geneva's
EXTD=
EXTT0=
EXTT1=
EXTT2=
EXTT3=
EXTT4=
EXTT5=
EXTT6=
EXTT7=
EXTT8=
EXTT9=
EXTT10=
PLAYORDER=
